<svg width="14" height="4" viewBox="0 0 14 4" fill="none" xmlns="http://www.w3.org/2000/svg">
<path d="M1.57095 3.96875V0.03125H0.135948V3.96875H1.57095ZM4.62032 0.03125L4.29745 1.86328L4.11807 0.878906L3.9387 0.03125H2.14495V3.96875H3.3647V1.37109L3.86695 3.96875H4.76382L5.23019 1.31641V3.96875H6.44994V0.03125H4.62032ZM7.02394 3.96875V0.03125H9.24819C9.78632 0.03125 10.1809 0.332031 10.1809 0.714844V3.28516C10.1809 3.66797 9.78632 3.96875 9.24819 3.96875H7.02394ZM8.71007 0.742188L8.38719 0.714844V3.28516C8.56657 3.28516 8.71007 3.25781 8.74594 3.20312C8.81769 3.14844 8.81769 2.98438 8.81769 2.71094V1.17969V0.851562L8.71007 0.742188ZM12.8716 1.01562H12.9792C13.4814 1.01562 13.9119 1.31641 13.9119 1.69922V3.28516C13.9119 3.66797 13.4814 3.96875 12.9792 3.96875H12.8716C12.5846 3.96875 12.2976 3.85938 12.1182 3.66797L12.0464 3.91406H10.7549V0.03125H12.1182V1.28906C12.2976 1.125 12.5846 1.01562 12.8716 1.01562ZM12.5846 2.92969V2L12.5487 1.69922C12.5128 1.64453 12.4052 1.61719 12.3334 1.61719C12.2617 1.61719 12.1541 1.64453 12.1182 1.69922V3.25781C12.1541 3.3125 12.2617 3.33984 12.3334 3.33984C12.4052 3.33984 12.5487 3.3125 12.5487 3.25781L12.5846 2.92969Z" fill="black"/>
</svg>
